<?xml version="1.0"?>
<svg xmlns="http://www.w3.org/2000/svg" height="512px" viewBox="-1 0 493 493.694" width="512px"><g><path d="m133.347656 233.226562c-5.523437 0-10 4.476563-10 10v4.230469c0 3.867188-3.132812 7-7 7-3.867187 0-7-3.132812-7-7v-4.230469c0-5.523437-4.476562-10-10-10-5.523437 0-10 4.476563-10 10v4.230469c0 14.914063 12.085938 27 27 27 14.910156 0 27-12.085937 27-27v-4.230469c0-5.523437-4.476562-10-10-10zm0 0" data-original="#000000" class="active-path" data-old_color="#ffb606" fill="#ffb606"/><path d="m200.847656 274.382812c14.691406-.054687 26.554688-12.007812 26.5-26.699218 0-.078125 0-.152344 0-.226563v-4.234375c0-5.523437-4.476562-10-10-10-5.523437 0-10 4.476563-10 10v4.234375c0 3.816407-2.679687 6.925781-6.5 6.925781-3.820312 0-6.5-3.109374-6.5-6.925781v-4.234375c0-5.523437-4.476562-10-10-10-5.523437 0-10 4.476563-10 10v4.234375c-.179687 14.6875 11.582032 26.742188 26.273438 26.921875zm0 0" data-original="#000000" class="active-path" data-old_color="#ffb606" fill="#ffb606"/><path d="m338.347656 332.449219c-5.523437 0-10 4.476562-10 10v2.855469c0 .777343-.222656 1.410156-1 1.410156-.78125 0-1-.632813-1-1.410156v-2.855469c0-5.523438-4.476562-10-10-10-5.523437 0-10 4.476562-10 10v2.855469c0 11.597656 9.402344 21 21 21s21-9.402344 21-21v-2.855469c0-5.523438-4.476562-10-10-10zm0 0" data-original="#000000" class="active-path" data-old_color="#ffb606" fill="#ffb606"/><path d="m396.347656 332.449219c-5.523437 0-10 4.476562-10 10v2.855469c0 .828124-.671875 1.5-1.5 1.5s-1.5-.671876-1.5-1.5v-2.855469c0-5.523438-4.476562-10-10-10-5.523437 0-10 4.476562-10 10v2.855469c0 11.871093 9.625 21.5 21.5 21.5s21.5-9.628907 21.5-21.5v-2.855469c0-5.523438-4.476562-10-10-10zm0 0" data-original="#000000" class="active-path" data-old_color="#ffb606" fill="#ffb606"/><path d="m432.347656 345.914062v-18.667968c2.398438.382812 4.824219.585937 7.25.617187 17.398438.113281 32.921875-10.90625 38.558594-27.367187 5.632812-16.460938.117188-34.679688-13.703125-45.25-13.816406-10.574219-32.847656-11.128906-47.261719-1.382813-19.875-26.335937-54.371094-36.996093-85.640625-26.472656s-52.296875 39.878906-52.203125 72.871094v45.652343c-.027344 30.59375 18.050782 58.308594 46.058594 70.617188l-.136719.164062h-21.671875c-14.652344-18.460937-36.980468-29.15625-60.546875-29h-33.535156l-3.46875-11.359374c37.539063-18.386719 61.324219-56.550782 61.300781-98.351563v-89.289063h14.089844c5.421875.101563 9.898438-4.207031 10-9.628906 0-.050781 0-.101562 0-.152344-.066406-42.707031-34.734375-77.273437-77.4375-77.21875h-69.425781c-14.484375-.058593-28.050781 7.089844-36.199219 19.070313-25.746094 1.597656-40.324219 15.976563-48.140625 28.320313-5.429687 8.667968-9.105469 18.316406-10.824219 28.398437-.054687.441406-.074218.882813-.0625 1.324219v99.175781c.027344 43.316406 25.574219 82.550781 65.175782 100.09375l-3.019532 9.617187h-33.402344c-42.867187 0-77.753906 34.519532-77.753906 77.386719v18.304688c-.019531 5.585937 4.429688 10.164062 10.011719 10.308593h448.308594c5.523437 0 9.679687-4.785156 9.679687-10.308593v-11.3125c.089844-30.492188-24.554687-55.289063-55.050781-55.378907h-23.890625l-.460938-1.324218c26.605469-12.894532 43.476563-39.890625 43.402344-69.457032zm18.839844-75.421874c8.59375 5.855468 11.445312 17.214843 6.636719 26.429687-4.8125 9.21875-15.761719 13.375-25.476563 9.671875v-6.328125c.082032-9.890625-1.753906-19.699219-5.414062-28.882813 7.007812-5.601562 16.855468-5.964843 24.253906-.890624zm-328.222656-135.1875c.179687-.265626.34375-.542969.484375-.832032 4.074219-7.898437 12.238281-12.839844 21.125-12.777344h69.425781c27.78125-.1875 51.660156 19.652344 56.566406 47h-125.992187c-13.078125.007813-23.695313-10.582031-23.71875-23.664062 0-3.355469.71875-6.671875 2.109375-9.726562zm-53.617188 44.320312c0-2.265625 2.285156-11.183594 7.816406-19.921875 5.871094-9.269531 13.847657-15.199219 23.835938-17.773437-.074219 1.046874-.136719 2.097656-.136719 3.160156.027344 16.488281 9.308594 31.558594 24.019531 39-20.90625 20.9375-43.535156 24.769531-55.535156 25.140625zm0 98.359375v-48.785156c17-.4375 50.410156-6.503907 78.117188-40.503907h99.882812v89.289063c0 49.152344-39.847656 89-89 89s-89-39.847656-89-89zm81 195.710937h-130v-8.613281c.070313-31.765625 25.878906-57.457031 57.644532-57.386719h37.316406l35.039062 28.261719zm-19.925781-79.84375 3.035156-9.585937c17.792969 4.175781 36.347657 3.824219 53.972657-1.015625l3.140624 10.542969-30.015624 24.507812zm169.925781 79.84375h-130v-37.757812l35.25-28.242188h37.453125c31.550781-.09375 57.203125 25.402344 57.296875 56.953126v.433593zm-1-173.433593c-.058594-29.644531 22.707032-54.34375 52.257813-56.695313 29.550781-2.355468 55.933593 18.429688 60.570312 47.710938-3.5625-4.492188-6.265625-9.605469-7.972656-15.082032-.992187-3.949218-4.285156-6.90625-8.320313-7.476562-4.035156-.566406-8.011718 1.367188-10.058593 4.894531-11.191407 19.328125-29.953125 30.246094-56.019531 32.445313-10.171876.789062-20.398438.34375-30.457032-1.332032zm47 173.433593h-26v-8.613281c.140625-9.699219-1.578125-19.335937-5.0625-28.386719h13.398438l17.664062 21.578126zm-2.167968-49.9375.371093-1.820312c8.453125 1.273438 17.0625 1.117188 25.464844-.460938l.382813 2.007813-13.699219 15.710937zm68.808593 12.9375c19.4375-.09375 35.265625 15.589844 35.359375 35.023438v.355469 1.621093h-82v-15.21875l19.324219-21.78125zm-57.140625-33.90625c-31.269531-.066406-56.566406-25.46875-56.5-56.738281v-21.082031c6.890625 1.007812 13.84375 1.503906 20.804688 1.488281 3.425781 0 6.941406-.125 10.621094-.417969 25.898437-2.054687 46.691406-11.625 61.570312-27.921874 5.195312 8.113281 12.003906 15.074218 20 20.449218v27.347656c.140625 31.269532-25.09375 56.734376-56.363281 56.875zm0 0" data-original="#000000" class="active-path" data-old_color="#ffb606" fill="#ffb606"/><path d="m395.171875 0c-53.664063 0-97.164063 43.5-97.164063 97.164062 0 53.660157 43.5 97.160157 97.164063 97.160157 53.660156 0 97.164063-43.5 97.164063-97.160157-.0625-53.636718-43.527344-97.101562-97.164063-97.164062zm0 174.324219c-42.617187 0-77.164063-34.546875-77.164063-77.164063 0-42.613281 34.546876-77.160156 77.164063-77.160156 42.613281 0 77.164063 34.546875 77.164063 77.160156-.050782 42.597656-34.570313 77.117188-77.164063 77.164063zm0 0" data-original="#000000" class="active-path" data-old_color="#ffb606" fill="#ffb606"/><path d="m429.09375 94.695312h-28.746094v-41.148437c0-5.523437-4.476562-10-10-10-5.523437 0-10 4.476563-10 10v50.882813c-.03125 5.570312 4.410156 10.136718 9.976563 10.265624h38.769531c5.523438 0 10-4.476562 10-10 0-5.523437-4.476562-10-10-10zm0 0" data-original="#000000" class="active-path" data-old_color="#ffb606" fill="#ffb606"/></g> </svg>
